<svg xmlns="http://www.w3.org/2000/svg" xmlns:xlink="http://www.w3.org/1999/xlink" viewBox="0 0 60 60" version="1.1" x="0px" y="0px">
  <g stroke="none" stroke-width="1" fill="none" fill-rule="evenodd">
    <g transform="translate(-300.000000, -300.000000)" fill="#ffc107">
      <path d="M300.156729,330.223886 L308.146363,311.248507 C308.478017,310.520198 309.029602,310.14444 309.625453,310.034273 L323.000043,307.02499 C323,303.134007 326.134007,300 330,300 C332.801837,300 335.219201,301.646128 336.33772,304.024013 L349.472313,301.06873 C349.589167,301.037653 349.708508,301.017115 349.828649,301.007116 C349.974915,300.994354 350.11977,300.997947 350.261125,301.016571 C350.87455,301.094813 351.455865,301.450115 351.777668,302.082479 C351.806552,302.138535 351.832944,302.196315 351.856669,302.255706 L359.843271,321.223886 C359.956921,321.493806 360.006849,321.774604 359.99988,322.049525 C359.97321,327.549588 355.50633,332 350,332 C344.49367,332 340.02679,327.549588 340.00012,322.049525 C339.993151,321.774604 340.043079,321.493806 340.156729,321.223886 L346.649357,305.803895 L336.930442,307.990651 C336.543985,310.718688 334.584851,312.940832 332,313.710121 L332,351 L343.008383,351 C344.108323,351 345,351.900176 345,352.992017 L345,358.007983 C345,359.108144 344.10216,360 343.008383,360 L316.991617,360 C315.891677,360 315,359.099824 315,358.007983 L315,352.992017 C315,351.891856 315.89784,351 316.991617,351 L328,351 L328,313.710121 C326.410724,313.23713 325.057988,312.214913 324.161894,310.863574 L312.770724,313.426587 L319.843271,330.223886 C319.956921,330.493806 320.006849,330.774604 319.99988,331.049525 C319.97321,336.549588 315.50633,341 310,341 C304.49367,341 300.02679,336.549588 300.00012,331.049525 C299.993151,330.774604 300.043079,330.493806 300.156729,330.223886 L300.156729,330.223886 Z M304.170865,331 L310,317.190002 L315.829135,331 L304.170865,331 L304.170865,331 L304.170865,331 Z M355.828461,322 L350,308.219971 L344.171539,322 L355.828461,322 L355.828461,322 L355.828461,322 Z"/>
    </g>
  </g>
</svg>