<?xml version="1.0" encoding="UTF-8" standalone="no"?>
<!-- Created with Inkscape (http://www.inkscape.org/) -->

<svg
   xmlns:dc="http://purl.org/dc/elements/1.1/"
   xmlns:cc="http://creativecommons.org/ns#"
   xmlns:rdf="http://www.w3.org/1999/02/22-rdf-syntax-ns#"
   xmlns:svg="http://www.w3.org/2000/svg"
   xmlns="http://www.w3.org/2000/svg"
   xmlns:sodipodi="http://sodipodi.sourceforge.net/DTD/sodipodi-0.dtd"
   xmlns:inkscape="http://www.inkscape.org/namespaces/inkscape"
   width="543"
   height="350"
   id="svg2"
   version="1.1"
   inkscape:version="0.91 r13725"
   sodipodi:docname="angular-component.svg"
   inkscape:export-filename="/home/SII/vogloblinsky/Bureau/compodoc.png"
   inkscape:export-xdpi="72"
   inkscape:export-ydpi="72">
  <defs
     id="defs4" />
  <sodipodi:namedview
     id="base"
     pagecolor="#ffffff"
     bordercolor="#666666"
     borderopacity="1.0"
     inkscape:pageopacity="0.0"
     inkscape:pageshadow="2"
     inkscape:zoom="0.98994949"
     inkscape:cx="207.9833"
     inkscape:cy="250.91201"
     inkscape:document-units="px"
     inkscape:current-layer="layer1"
     showgrid="false"
     inkscape:window-width="1280"
     inkscape:window-height="683"
     inkscape:window-x="0"
     inkscape:window-y="639"
     inkscape:window-maximized="1"
     fit-margin-top="0"
     fit-margin-left="0"
     fit-margin-right="0"
     fit-margin-bottom="0" />
  <metadata
     id="metadata7">
    <rdf:RDF>
      <cc:Work
         rdf:about="">
        <dc:format>image/svg+xml</dc:format>
        <dc:type
           rdf:resource="http://purl.org/dc/dcmitype/StillImage" />
        <dc:title></dc:title>
      </cc:Work>
    </rdf:RDF>
  </metadata>
  <g
     inkscape:label="Calque 1"
     inkscape:groupmode="layer"
     id="layer1"
     transform="translate(-109.30421,-178.41308)">
    <g
       id="g3075"
       transform="matrix(-0.34202014,0.93969262,-0.93969262,-0.34202014,789.34114,185.85587)">
      <path
         id="path254"
         style="fill:#f03949;fill-opacity:1;fill-rule:nonzero;stroke:none"
         d="m 126.98485,359.06758 340,0 0,-65 -340,0 0,65 z"
         inkscape:connector-curvature="0" />
      <path
         id="path256"
         style="fill:#f78f22;fill-opacity:1;fill-rule:nonzero;stroke:none"
         d="m 306.35985,326.56758 c 0,-13.46125 -10.9125,-24.37375 -24.37375,-24.37375 -13.46125,0 -24.37375,10.9125 -24.37375,24.37375 0,13.46125 10.9125,24.37375 24.37375,24.37375 13.46125,0 24.37375,-10.9125 24.37375,-24.37375"
         inkscape:connector-curvature="0" />
      <path
         id="path266"
         style="fill:#1a3a5c;fill-opacity:1;fill-rule:nonzero;stroke:none"
         d="m 173.23485,359.06758 28.75,0 0,-65 -28.75,0 0,65 z"
         inkscape:connector-curvature="0" />
      <path
         sodipodi:nodetypes="ccccccccccccccccccsccccc"
         id="path268"
         style="fill:#e73440;fill-opacity:1;fill-rule:nonzero;stroke:none"
         d="m 466.98485,326.56758 -27.5,0 0,-32.5 27.5,0 0,32.5 m -41.25,0 -38.78935,0.25254 -1.26269,-32.24746 62.02286,1.01015 -2.77792,31.23731 m -57.9429,-0.25254 -10,0 0,-32.5 10,0 0,32.5 m -23.75,0 -56.875,0 0,0 c 0,-13.46125 -10.9125,-24.37375 -24.37375,-24.37375 -13.46125,0 -24.37375,10.9125 -24.37375,24.37375 l -55.6275,0 0,-32.5 176.40229,0.25254 1.01015,32.5"
         inkscape:connector-curvature="0" />
      <path
         id="path258"
         style="fill:#3f1928;fill-opacity:1;fill-rule:nonzero;stroke:none"
         d="m 383.23485,359.06758 13.75,0 0,-65 -13.75,0 0,65 z"
         inkscape:connector-curvature="0" />
      <path
         id="path260"
         style="fill:#3f1928;fill-opacity:1;fill-rule:nonzero;stroke:none"
         d="m 405.73485,359.06758 13.75,0 0,-65 -13.75,0 0,65 z"
         inkscape:connector-curvature="0" />
      <path
         id="path278"
         style="fill:#e73440;fill-opacity:1;fill-rule:nonzero;stroke:none"
         d="m 173.23485,326.56758 -7.5,0 0,-32.5 7.5,0 0,32.5 m -21.25,0 -25,0 0,-32.5 25,0 0,32.5"
         inkscape:connector-curvature="0" />
      <path
         id="path280"
         style="fill:#e73440;fill-opacity:1;fill-rule:nonzero;stroke:none"
         d="m 151.98485,326.56758 13.75,0 0,-32.5 -13.75,0 0,32.5 z"
         inkscape:connector-curvature="0" />
      <path
         id="path282"
         style="fill:#183452;fill-opacity:1;fill-rule:nonzero;stroke:none"
         d="m 173.23485,326.56758 28.75,0 0,-32.5 -28.75,0 0,32.5 z"
         inkscape:connector-curvature="0" />
    </g>
    <g
       id="g3914"
       transform="translate(16.162441,150.10807)">
      <rect
         transform="matrix(0.70710678,-0.70710678,0.70710678,0.70710678,0,0)"
         style="fill:#5cc0ae;fill-opacity:1"
         y="209.84224"
         x="-77.023102"
         height="44.285713"
         width="180"
         id="rect3090" />
      <rect
         transform="matrix(0.70710678,0.70710678,-0.70710678,0.70710678,0,0)"
         style="fill:#f1c40f;fill-opacity:1"
         y="33.689053"
         x="209.69711"
         height="44.285713"
         width="180"
         id="rect3090-7-2" />
    </g>
    <g
       id="g3919"
       transform="translate(-2.0203046,42.720507)">
      <path
         inkscape:connector-curvature="0"
         id="rect3090-7-2-4"
         d="m 623.00576,279.17227 -127.28125,127.28125 31.3125,31.3125 127.28125,-127.28125 -31.3125,-31.3125 z"
         style="fill:#f03949;fill-opacity:1" />
      <rect
         transform="matrix(0.70710678,0.70710678,-0.70710678,0.70710678,0,0)"
         style="fill:#3498db;fill-opacity:1"
         y="-242.99538"
         x="502.17584"
         height="44.285713"
         width="180"
         id="rect3090-7" />
    </g>
    <flowRoot
       xml:space="preserve"
       id="flowRoot3935"
       style="font-style:normal;font-weight:normal;font-size:40px;line-height:125%;font-family:Sans;letter-spacing:0px;word-spacing:0px;fill:#000000;fill-opacity:1;stroke:none"
       transform="translate(109.30421,32.871674)"><flowRegion
         id="flowRegion3937"><rect
           id="rect3939"
           width="355.5737"
           height="240.41631"
           x="331.33005"
           y="610.32037" /></flowRegion><flowPara
         id="flowPara3941" /></flowRoot>  </g>
</svg>
