<?xml version="1.0" encoding="UTF-8" standalone="no"?>
<!-- Generator: Adobe Illustrator 18.1.1, SVG Export Plug-In . SVG Version: 6.00 Build 0)  -->

<svg
   xmlns:dc="http://purl.org/dc/elements/1.1/"
   xmlns:cc="http://creativecommons.org/ns#"
   xmlns:rdf="http://www.w3.org/1999/02/22-rdf-syntax-ns#"
   xmlns:svg="http://www.w3.org/2000/svg"
   xmlns="http://www.w3.org/2000/svg"
   xmlns:sodipodi="http://sodipodi.sourceforge.net/DTD/sodipodi-0.dtd"
   xmlns:inkscape="http://www.inkscape.org/namespaces/inkscape"
   version="1.1"
   id="Layer_1"
   x="0px"
   y="0px"
   viewBox="0 0 65 66"
   enable-background="new 0 0 65 66"
   xml:space="preserve"
   inkscape:version="0.91 r13725"
   sodipodi:docname="layers.svg"><metadata
     id="metadata63"><rdf:RDF><cc:Work
         rdf:about=""><dc:format>image/svg+xml</dc:format><dc:type
           rdf:resource="http://purl.org/dc/dcmitype/StillImage" /></cc:Work></rdf:RDF></metadata><defs
     id="defs61" /><sodipodi:namedview
     pagecolor="#ffffff"
     bordercolor="#666666"
     borderopacity="1"
     objecttolerance="10"
     gridtolerance="10"
     guidetolerance="10"
     inkscape:pageopacity="0"
     inkscape:pageshadow="2"
     inkscape:window-width="1281"
     inkscape:window-height="680"
     id="namedview59"
     showgrid="false"
     inkscape:zoom="3.5757576"
     inkscape:cx="32.5"
     inkscape:cy="33"
     inkscape:window-x="0"
     inkscape:window-y="638"
     inkscape:window-maximized="0"
     inkscape:current-layer="Layer_1"
     width="45px"
     units="px" /><g
     id="g3"
     transform="matrix(1.4138481,0,0,1.4138481,-13.170404,-14.432014)"><g
       id="g5"><path
         stroke-miterlimit="10"
         d="m 48.3,18.7 -35.3,0 c -1.3,0 -2.3,1 -2.3,2.3 l 0,3.5 0,23.6 c 0,1.3 1,2.3 2.3,2.3 l 35.3,0 c 1.3,0 2.3,-1 2.3,-2.3 l 0,-23.6 0,-3.5 c 0.1,-1.3 -1,-2.3 -2.3,-2.3 z"
         id="path7"
         inkscape:connector-curvature="0"
         style="fill:#cccbcb;stroke:#205281;stroke-linejoin:round;stroke-miterlimit:10" /><g
         id="g9"><path
           stroke-miterlimit="10"
           d="m 54.3,17.4 c 0,-1.3 -1,-2.3 -2.3,-2.3 l -35.4,0 c -1.3,0 -2.3,1 -2.3,2.3 l 0,3.6 40,0 0,-3.6 z"
           id="path11"
           inkscape:connector-curvature="0"
           style="fill:#e8e8e8;stroke:#205281;stroke-linejoin:round;stroke-miterlimit:10" /><path
           stroke-miterlimit="10"
           d="m 14.3,21 0,23.6 c 0,1.3 1,2.3 2.3,2.3 l 35.3,0 c 1.3,0 2.3,-1 2.3,-2.3 l 0,-23.6 -39.9,0 z"
           id="path13"
           inkscape:connector-curvature="0"
           style="fill:#f4f5f5;stroke:#205281;stroke-linejoin:round;stroke-miterlimit:10" /><g
           id="g15"><rect
             x="30.700001"
             y="33.799999"
             transform="matrix(0.7071,0.7071,-0.7071,0.7071,35.6926,-12.9313)"
             stroke-miterlimit="10"
             width="5.5999999"
             height="5.5999999"
             id="rect17"
             style="fill:#5aacde;stroke:#205281;stroke-linejoin:round;stroke-miterlimit:10" /><rect
             x="21.4"
             y="27.9"
             transform="matrix(0.7071,0.7071,-0.7071,0.7071,27.27,-7.4963)"
             stroke-miterlimit="10"
             width="2.5"
             height="2.5"
             id="rect19"
             style="fill:#68aa45;stroke:#205281;stroke-linejoin:round;stroke-miterlimit:10" /><rect
             x="28.700001"
             y="25"
             stroke-miterlimit="10"
             width="9.3999996"
             height="3.5"
             id="rect21"
             style="fill:#5aacde;stroke:#205281;stroke-linejoin:round;stroke-miterlimit:10" /><rect
             x="20.200001"
             y="34.400002"
             stroke-miterlimit="10"
             width="5"
             height="5"
             id="rect23"
             style="fill:#5aacde;stroke:#205281;stroke-linejoin:round;stroke-miterlimit:10" /><line
             stroke-miterlimit="10"
             x1="29.5"
             y1="36.599998"
             x2="25.200001"
             y2="36.599998"
             id="line25"
             style="fill:none;stroke:#205281;stroke-linejoin:round;stroke-miterlimit:10" /><line
             stroke-miterlimit="10"
             x1="33.5"
             y1="32.900002"
             x2="33.5"
             y2="28.700001"
             id="line27"
             style="fill:none;stroke:#205281;stroke-linejoin:round;stroke-miterlimit:10" /><g
             id="g29"><line
               x1="22.700001"
               y1="31"
               x2="22.700001"
               y2="34.400002"
               id="line31"
               style="fill:none;stroke:#205281;stroke-linejoin:round;stroke-dasharray:3.3978" /></g><polyline
             stroke-miterlimit="10"
             points="37.4,36.6 40,36.6 40,40.6       46.1,40.6     "
             id="polyline33"
             style="fill:none;stroke:#205281;stroke-linejoin:round;stroke-miterlimit:10" /><polyline
             stroke-miterlimit="10"
             points="      38.2,26.8 46.1,26.8 46.1,40.6     "
             id="polyline35"
             style="fill:none;stroke:#205281;stroke-linejoin:round;stroke-miterlimit:10;stroke-dasharray:4, 1" /><circle
             stroke-miterlimit="10"
             cx="46.099998"
             cy="40.599998"
             r="2.3"
             id="circle37"
             style="fill:#68aa45;stroke:#205281;stroke-linejoin:round;stroke-miterlimit:10" /></g><g
           id="g39"><g
             id="g41"><circle
               cx="17.299999"
               cy="18"
               r="0.2"
               id="circle43"
               style="fill:#cf4536" /><path
               d="m 17.3,17.4 c -0.4,0 -0.7,0.3 -0.7,0.7 0,0.4 0.3,0.7 0.7,0.7 0.4,0 0.7,-0.4 0.7,-0.8 0,-0.4 -0.3,-0.6 -0.7,-0.6 l 0,0 z"
               id="path45"
               inkscape:connector-curvature="0"
               style="fill:#205281" /></g><g
             id="g47"><circle
               cx="19.700001"
               cy="18"
               r="0.2"
               id="circle49"
               style="fill:#f5c13f" /><path
               d="m 19.7,17.4 c -0.4,0 -0.7,0.3 -0.7,0.7 0,0.4 0.3,0.7 0.7,0.7 0.4,0 0.7,-0.3 0.7,-0.7 0,-0.4 -0.4,-0.7 -0.7,-0.7 l 0,0 z"
               id="path51"
               inkscape:connector-curvature="0"
               style="fill:#205281" /></g><g
             id="g53"><circle
               cx="22"
               cy="18"
               r="0.2"
               id="circle55"
               style="fill:#68aa45" /><path
               d="m 22,17.4 c -0.4,0 -0.7,0.3 -0.7,0.7 0,0.4 0.3,0.7 0.7,0.7 0.4,0 0.7,-0.3 0.7,-0.7 0,-0.4 -0.3,-0.7 -0.7,-0.7 l 0,0 z"
               id="path57"
               inkscape:connector-curvature="0"
               style="fill:#205281" /></g></g></g></g></g></svg>