<?xml version="1.0" encoding="UTF-8" standalone="no"?>
<svg
   xmlns:dc="http://purl.org/dc/elements/1.1/"
   xmlns:cc="http://creativecommons.org/ns#"
   xmlns:rdf="http://www.w3.org/1999/02/22-rdf-syntax-ns#"
   xmlns:svg="http://www.w3.org/2000/svg"
   xmlns="http://www.w3.org/2000/svg"
   xmlns:sodipodi="http://sodipodi.sourceforge.net/DTD/sodipodi-0.dtd"
   xmlns:inkscape="http://www.inkscape.org/namespaces/inkscape"
   viewBox="0 0 300 300"
   id="svg2"
   version="1.1"
   inkscape:version="0.91 r13725"
   sodipodi:docname="lego-app.svg">
  <metadata
     id="metadata76">
    <rdf:RDF>
      <cc:Work
         rdf:about="">
        <dc:format>image/svg+xml</dc:format>
        <dc:type
           rdf:resource="http://purl.org/dc/dcmitype/StillImage" />
      </cc:Work>
    </rdf:RDF>
  </metadata>
  <defs
     id="defs74" />
  <sodipodi:namedview
     pagecolor="#ffffff"
     bordercolor="#666666"
     borderopacity="1"
     objecttolerance="10"
     gridtolerance="10"
     guidetolerance="10"
     inkscape:pageopacity="0"
     inkscape:pageshadow="2"
     inkscape:window-width="1282"
     inkscape:window-height="679"
     id="namedview72"
     showgrid="false"
     inkscape:zoom="1.5344487"
     inkscape:cx="153.81356"
     inkscape:cy="140.4661"
     inkscape:window-x="0"
     inkscape:window-y="638"
     inkscape:window-maximized="0"
     inkscape:current-layer="XMLID_2_" />
  <style
     id="style4">.st0{fill:#8aa3a4}.st1{fill:#bbcccb}.st2{fill:#94c740}.st3{fill:#fff}.st4{fill:#f3a61f}.st4,.st5,.st6,.st7,.st8{fill-rule:evenodd;clip-rule:evenodd}.st5{fill:#f78f22}.st6{fill:#f7c21b}.st7{fill:#e74548}.st8{fill:#94c740}</style>
  <g
     id="XMLID_2_">
    <path
       id="XMLID_60_"
       class="st4"
       d="m 34.61508,46.247919 29.157218,0 0,29.157219 -29.157218,0 z"
       inkscape:connector-curvature="0"
       style="clip-rule:evenodd;fill:#f3a61f;fill-rule:evenodd" />
    <path
       id="XMLID_59_"
       class="st5"
       d="m 151.24395,46.247919 29.15722,0 0,29.157219 -29.15722,0 z"
       inkscape:connector-curvature="0"
       style="clip-rule:evenodd;fill:#f78f22;fill-rule:evenodd" />
    <path
       id="XMLID_58_"
       class="st5"
       d="m 209.55839,46.247919 58.31444,0 0,29.157219 -58.31444,0 z"
       inkscape:connector-curvature="0"
       style="clip-rule:evenodd;fill:#f78f22;fill-rule:evenodd" />
    <path
       id="XMLID_57_"
       class="st6"
       d="m 63.772298,75.405138 58.314442,0 0,29.157222 -58.314442,0 z"
       inkscape:connector-curvature="0"
       style="clip-rule:evenodd;fill:#f7c21b;fill-rule:evenodd" />
    <path
       id="XMLID_56_"
       class="st5"
       d="m 180.40117,75.405138 29.15722,0 0,29.157222 -29.15722,0 z"
       inkscape:connector-curvature="0"
       style="clip-rule:evenodd;fill:#f78f22;fill-rule:evenodd" />
    <path
       id="XMLID_55_"
       class="st4"
       d="m 122.08674,75.405138 58.31443,0 0,29.157222 -58.31443,0 z"
       inkscape:connector-curvature="0"
       style="clip-rule:evenodd;fill:#f3a61f;fill-rule:evenodd" />
    <path
       id="XMLID_54_"
       class="st7"
       d="m 238.71561,75.405138 29.15722,0 0,29.157222 -29.15722,0 z"
       inkscape:connector-curvature="0"
       style="clip-rule:evenodd;fill:#e74548;fill-rule:evenodd" />
    <path
       id="XMLID_53_"
       class="st4"
       d="m 92.929517,104.56236 58.314433,0 0,29.15722 -58.314433,0 z"
       inkscape:connector-curvature="0"
       style="clip-rule:evenodd;fill:#f3a61f;fill-rule:evenodd" />
    <path
       id="XMLID_52_"
       class="st5"
       d="m 63.772298,104.56236 29.157219,0 0,29.15722 -29.157219,0 z"
       inkscape:connector-curvature="0"
       style="clip-rule:evenodd;fill:#f78f22;fill-rule:evenodd" />
    <path
       id="XMLID_51_"
       class="st5"
       d="m 180.40117,133.71958 58.31444,0 0,29.15721 -58.31444,0 z"
       inkscape:connector-curvature="0"
       style="clip-rule:evenodd;fill:#f78f22;fill-rule:evenodd" />
    <path
       id="XMLID_50_"
       class="st4"
       d="m 180.40117,162.87679 58.31444,0 0,29.15722 -58.31444,0 z"
       inkscape:connector-curvature="0"
       style="clip-rule:evenodd;fill:#f3a61f;fill-rule:evenodd" />
    <path
       id="XMLID_49_"
       class="st6"
       d="m 63.772298,192.03401 29.157219,0 0,29.15722 -29.157219,0 z"
       inkscape:connector-curvature="0"
       style="clip-rule:evenodd;fill:#f7c21b;fill-rule:evenodd" />
    <path
       id="XMLID_48_"
       class="st4"
       d="m 63.772298,133.71958 58.314442,0 0,29.15721 -58.314442,0 z"
       inkscape:connector-curvature="0"
       style="clip-rule:evenodd;fill:#f3a61f;fill-rule:evenodd" />
    <path
       id="XMLID_47_"
       class="st6"
       d="m 63.772298,162.87679 29.157219,0 0,29.15722 -29.157219,0 z"
       inkscape:connector-curvature="0"
       style="clip-rule:evenodd;fill:#f7c21b;fill-rule:evenodd" />
    <path
       id="XMLID_46_"
       class="st4"
       d="m 180.40117,192.03401 29.15722,0 0,29.15722 -29.15722,0 z"
       inkscape:connector-curvature="0"
       style="clip-rule:evenodd;fill:#f3a61f;fill-rule:evenodd" />
    <path
       id="XMLID_45_"
       class="st7"
       d="m 209.55839,221.19123 29.15722,0 0,29.15722 -29.15722,0 z"
       inkscape:connector-curvature="0"
       style="clip-rule:evenodd;fill:#e74548;fill-rule:evenodd" />
    <path
       id="XMLID_44_"
       class="st4"
       d="m 63.772298,221.19123 29.157219,0 0,29.15722 -29.157219,0 z"
       inkscape:connector-curvature="0"
       style="clip-rule:evenodd;fill:#f3a61f;fill-rule:evenodd" />
    <path
       id="XMLID_43_"
       class="st5"
       d="m 63.772298,250.34845 58.314442,0 0,29.15722 -58.314442,0 z"
       inkscape:connector-curvature="0"
       style="clip-rule:evenodd;fill:#f78f22;fill-rule:evenodd" />
    <path
       id="XMLID_42_"
       class="st7"
       d="m 180.40117,250.34845 29.15722,0 0,29.15722 -29.15722,0 z"
       inkscape:connector-curvature="0"
       style="clip-rule:evenodd;fill:#e74548;fill-rule:evenodd" />
    <path
       id="XMLID_41_"
       class="st4"
       d="m 92.929517,250.34845 58.314433,0 0,29.15722 -58.314433,0 z"
       inkscape:connector-curvature="0"
       style="clip-rule:evenodd;fill:#f3a61f;fill-rule:evenodd" />
    <path
       id="XMLID_40_"
       class="st5"
       d="m 151.24395,250.34845 29.15722,0 0,29.15722 -29.15722,0 z"
       inkscape:connector-curvature="0"
       style="clip-rule:evenodd;fill:#f78f22;fill-rule:evenodd" />
    <g
       id="XMLID_36_"
       transform="matrix(1.4578609,0,0,1.4578609,-68.893047,-124.32181)">
      <path
         id="XMLID_39_"
         class="st5"
         d="m 71,98 40,0 0,19 -40,0 z"
         inkscape:connector-curvature="0"
         style="clip-rule:evenodd;fill:#f78f22;fill-rule:evenodd" />
      <path
         id="XMLID_38_"
         class="st5"
         d="m 77,98 10,0 0,-2.5 C 87,94.6 85.7,94 84.7,94 l -6.6,0 C 77.2,94 77,94.6 77,95.5 l 0,2.5 z"
         inkscape:connector-curvature="0"
         style="clip-rule:evenodd;fill:#f78f22;fill-rule:evenodd" />
      <path
         id="XMLID_37_"
         class="st5"
         d="m 96,98 10,0 0,-2.5 c 0,-0.9 -0.5,-1.5 -1.5,-1.5 l -6.6,0 c -1,0 -1.9,0.6 -1.9,1.5 l 0,2.5 z"
         inkscape:connector-curvature="0"
         style="clip-rule:evenodd;fill:#f78f22;fill-rule:evenodd" />
    </g>
    <g
       id="XMLID_33_"
       transform="matrix(1.4578609,0,0,1.4578609,-68.893047,-124.32181)">
      <path
         id="XMLID_35_"
         class="st7"
         d="m 211,257 20,0 0,20 -20,0 z"
         inkscape:connector-curvature="0"
         style="clip-rule:evenodd;fill:#e74548;fill-rule:evenodd" />
      <path
         id="XMLID_34_"
         class="st7"
         d="m 217,257 10,0 0,-2.9 c 0,-1 -1.5,-1.1 -2.4,-1.1 l -6.3,0 c -0.9,0 -1.3,0.1 -1.3,1.1 l 0,2.9 z"
         inkscape:connector-curvature="0"
         style="clip-rule:evenodd;fill:#e74548;fill-rule:evenodd" />
    </g>
    <g
       id="XMLID_30_"
       transform="matrix(1.4578609,0,0,1.4578609,-68.893047,-124.32181)">
      <path
         id="XMLID_32_"
         class="st5"
         d="m 71,257 20,0 0,20 -20,0 z"
         inkscape:connector-curvature="0"
         style="clip-rule:evenodd;fill:#f78f22;fill-rule:evenodd" />
      <path
         id="XMLID_31_"
         class="st5"
         d="m 77,257 10,0 0,-2.9 c 0,-1 -1.5,-1.1 -2.4,-1.1 l -6.3,0 c -0.9,0 -1.3,0.1 -1.3,1.1 l 0,2.9 z"
         inkscape:connector-curvature="0"
         style="clip-rule:evenodd;fill:#f78f22;fill-rule:evenodd" />
    </g>
    <path
       id="XMLID_29_"
       class="st7"
       d="m 151.24395,104.56236 58.31444,0 0,29.15722 -58.31444,0 z"
       inkscape:connector-curvature="0"
       style="clip-rule:evenodd;fill:#e74548;fill-rule:evenodd" />
    <path
       id="XMLID_28_"
       class="st6"
       d="m 92.929517,46.247919 58.314433,0 0,29.157219 -58.314433,0 z"
       inkscape:connector-curvature="0"
       style="clip-rule:evenodd;fill:#f7c21b;fill-rule:evenodd" />
    <g
       id="XMLID_24_"
       transform="matrix(1.4578609,0,0,1.4578609,-68.893047,-124.32181)">
      <path
         id="XMLID_27_"
         class="st6"
         d="m 131,98 40,0 0,19 -40,0 z"
         inkscape:connector-curvature="0"
         style="clip-rule:evenodd;fill:#f7c21b;fill-rule:evenodd" />
      <path
         id="XMLID_26_"
         class="st6"
         d="m 136,98 10,0 0,-2.5 c 0,-0.9 -0.5,-1.5 -1.5,-1.5 l -6.4,0 c -0.9,0 -2.1,0.6 -2.1,1.5 l 0,2.5 z"
         inkscape:connector-curvature="0"
         style="clip-rule:evenodd;fill:#f7c21b;fill-rule:evenodd" />
      <path
         id="XMLID_25_"
         class="st6"
         d="m 156,98 9,0 0,-2.5 c 0,-0.9 -0.3,-1.5 -1.2,-1.5 l -6.4,0 c -0.9,0 -1.4,0.6 -1.4,1.5 l 0,2.5 z"
         inkscape:connector-curvature="0"
         style="clip-rule:evenodd;fill:#f7c21b;fill-rule:evenodd" />
    </g>
    <g
       id="XMLID_20_"
       transform="matrix(1.4578609,0,0,1.4578609,-68.893047,-124.32181)">
      <path
         id="XMLID_23_"
         class="st7"
         d="m 191,98 40,0 0,19 -40,0 z"
         inkscape:connector-curvature="0"
         style="clip-rule:evenodd;fill:#e74548;fill-rule:evenodd" />
      <path
         id="XMLID_22_"
         class="st7"
         d="m 197,98 10,0 0,-2.5 c 0,-0.9 -1.1,-1.5 -2,-1.5 l -6.6,0 c -0.9,0 -1.4,0.6 -1.4,1.5 l 0,2.5 z"
         inkscape:connector-curvature="0"
         style="clip-rule:evenodd;fill:#e74548;fill-rule:evenodd" />
      <path
         id="XMLID_21_"
         class="st7"
         d="m 216,98 10,0 0,-2.5 c 0,-0.9 -0.3,-1.5 -1.3,-1.5 l -6.6,0 c -1,0 -2.2,0.6 -2.2,1.5 l 0,2.5 z"
         inkscape:connector-curvature="0"
         style="clip-rule:evenodd;fill:#e74548;fill-rule:evenodd" />
    </g>
    <path
       id="XMLID_19_"
       class="st4"
       d="m 63.772298,46.247919 29.157219,0 0,29.157219 -29.157219,0 z"
       inkscape:connector-curvature="0"
       style="clip-rule:evenodd;fill:#f3a61f;fill-rule:evenodd" />
    <path
       id="XMLID_18_"
       class="st4"
       d="m 180.40117,46.247919 29.15722,0 0,29.157219 -29.15722,0 z"
       inkscape:connector-curvature="0"
       style="clip-rule:evenodd;fill:#f3a61f;fill-rule:evenodd" />
    <path
       id="XMLID_17_"
       class="st5"
       d="m 34.61508,75.405138 29.157218,0 0,29.157222 -29.157218,0 z"
       inkscape:connector-curvature="0"
       style="clip-rule:evenodd;fill:#f78f22;fill-rule:evenodd" />
    <path
       id="XMLID_16_"
       class="st4"
       d="m 209.55839,75.405138 29.15722,0 0,29.157222 -29.15722,0 z"
       inkscape:connector-curvature="0"
       style="clip-rule:evenodd;fill:#f3a61f;fill-rule:evenodd" />
    <path
       id="XMLID_15_"
       class="st8"
       d="m 4,279.50567 291.57219,0 0,17.49433 L 4,297 Z"
       inkscape:connector-curvature="0"
       style="clip-rule:evenodd;fill:#94c740;fill-rule:evenodd" />
    <path
       id="XMLID_14_"
       class="st7"
       d="m 209.55839,104.56236 29.15722,0 0,29.15722 -29.15722,0 z"
       inkscape:connector-curvature="0"
       style="clip-rule:evenodd;fill:#e74548;fill-rule:evenodd" />
    <path
       id="XMLID_13_"
       class="st5"
       d="m 209.55839,192.03401 29.15722,0 0,29.15722 -29.15722,0 z"
       inkscape:connector-curvature="0"
       style="clip-rule:evenodd;fill:#f78f22;fill-rule:evenodd" />
    <g
       id="XMLID_9_"
       transform="matrix(1.4578609,0,0,1.4578609,-68.893047,-124.32181)">
      <path
         id="XMLID_12_"
         class="st6"
         d="m 131,237 40,0 0,20 -40,0 z"
         inkscape:connector-curvature="0"
         style="clip-rule:evenodd;fill:#f7c21b;fill-rule:evenodd" />
      <path
         id="XMLID_11_"
         class="st6"
         d="m 136,237 10,0 0,-2.4 c 0,-1 -0.5,-1.6 -1.5,-1.6 l -6.4,0 c -0.9,0 -2.1,0.6 -2.1,1.6 l 0,2.4 z"
         inkscape:connector-curvature="0"
         style="clip-rule:evenodd;fill:#f7c21b;fill-rule:evenodd" />
      <path
         id="XMLID_10_"
         class="st6"
         d="m 156,237 9,0 0,-2.4 c 0,-1 -0.3,-1.6 -1.2,-1.6 l -6.4,0 c -0.9,0 -1.4,0.6 -1.4,1.6 l 0,2.4 z"
         inkscape:connector-curvature="0"
         style="clip-rule:evenodd;fill:#f7c21b;fill-rule:evenodd" />
    </g>
    <path
       id="XMLID_8_"
       class="st5"
       d="m 180.40117,221.19123 29.15722,0 0,29.15722 -29.15722,0 z"
       inkscape:connector-curvature="0"
       style="clip-rule:evenodd;fill:#f78f22;fill-rule:evenodd" />
    <path
       id="XMLID_7_"
       class="st7"
       d="m 209.55839,250.34845 29.15722,0 0,29.15722 -29.15722,0 z"
       inkscape:connector-curvature="0"
       style="clip-rule:evenodd;fill:#e74548;fill-rule:evenodd" />
    <path
       id="XMLID_6_"
       class="st4"
       d="m 92.929517,192.03401 29.157223,0 0,29.15722 -29.157223,0 z"
       inkscape:connector-curvature="0"
       style="clip-rule:evenodd;fill:#f3a61f;fill-rule:evenodd" />
    <path
       id="XMLID_5_"
       class="st6"
       d="m 92.929517,162.87679 29.157223,0 0,29.15722 -29.157223,0 z"
       inkscape:connector-curvature="0"
       style="clip-rule:evenodd;fill:#f7c21b;fill-rule:evenodd" />
    <path
       id="XMLID_4_"
       class="st5"
       d="m 92.929517,221.19123 29.157223,0 0,29.15722 -29.157223,0 z"
       inkscape:connector-curvature="0"
       style="clip-rule:evenodd;fill:#f78f22;fill-rule:evenodd" />
    <path
       id="XMLID_3_"
       class="st7"
       d="m 209.55839,133.71958 29.15722,0 0,29.15721 -29.15722,0 z"
       inkscape:connector-curvature="0"
       style="clip-rule:evenodd;fill:#e74548;fill-rule:evenodd" />
  </g>
</svg>
