<?xml version="1.0" encoding="UTF-8" standalone="no"?>
<!-- Svg Vector Icons : http://www.onlinewebfonts.com/icon -->

<svg
   xmlns:dc="http://purl.org/dc/elements/1.1/"
   xmlns:cc="http://creativecommons.org/ns#"
   xmlns:rdf="http://www.w3.org/1999/02/22-rdf-syntax-ns#"
   xmlns:svg="http://www.w3.org/2000/svg"
   xmlns="http://www.w3.org/2000/svg"
   xmlns:sodipodi="http://sodipodi.sourceforge.net/DTD/sodipodi-0.dtd"
   xmlns:inkscape="http://www.inkscape.org/namespaces/inkscape"
   version="1.1"
   x="0px"
   y="0px"
   viewBox="0 0 1000 1000"
   enable-background="new 0 0 1000 1000"
   xml:space="preserve"
   id="svg2"
   inkscape:version="0.91 r13725"
   sodipodi:docname="lifecycle.svg"><defs
     id="defs14" /><sodipodi:namedview
     pagecolor="#ffffff"
     bordercolor="#666666"
     borderopacity="1"
     objecttolerance="10"
     gridtolerance="10"
     guidetolerance="10"
     inkscape:pageopacity="0"
     inkscape:pageshadow="2"
     inkscape:window-width="1278"
     inkscape:window-height="680"
     id="namedview12"
     showgrid="false"
     inkscape:zoom="0.236"
     inkscape:cx="500"
     inkscape:cy="500"
     inkscape:window-x="0"
     inkscape:window-y="638"
     inkscape:window-maximized="0"
     inkscape:current-layer="g6" /><metadata
     id="metadata4"> Svg Vector Icons : http://www.onlinewebfonts.com/icon <rdf:RDF><cc:Work
     rdf:about=""><dc:format>image/svg+xml</dc:format><dc:type
       rdf:resource="http://purl.org/dc/dcmitype/StillImage" /></cc:Work></rdf:RDF></metadata><g
     id="g6"><path
       d="m 473.6,526 c -5.2,11.8 -17,20.1 -30.8,20.1 l -129.3,0 c -18.5,0 -33.6,-15 -33.6,-33.6 0,-18.5 15,-33.6 33.6,-33.6 l 107.3,0 56.4,-173.7 c 0.5,-1.6 1.2,-3.2 1.9,-4.6 2,-11.7 10.3,-21.9 22.3,-25.9 17.3,-5.6 36,3.9 41.6,21.2 l 79.5,244.7 63.2,-194.4 c 2.4,-7.3 7.1,-13.2 13,-17.2 2.9,-2.1 6.1,-3.8 9.7,-5 17.7,-5.7 36.6,3.9 42.3,21.6 l 40.7,125.2 105.1,0 c 3.2,0 6.2,0.4 9.1,1.3 29.6,-40.5 47,-90.4 47,-144.3 0,-67.3 -27.1,-128.2 -71,-172.5 -24,-28.2 -55.4,-49.3 -94.1,-59.2 -25.1,-8.6 -52,-13.4 -80,-13.4 -87.2,0 -163.8,45.5 -207.2,114.1 l -12.2,20.9 -6.8,15.5 c 0,0.1 -0.1,0.1 -0.1,0.2 0,-0.1 -0.1,-0.1 -0.1,-0.2 l -6.8,-15.5 -12.2,-20.9 C 418.7,128.2 342.1,82.7 254.9,82.7 c -28,0 -54.9,4.7 -80,13.4 -38.7,10 -70.1,31 -94.1,59.2 -43.9,44.3 -71,105.2 -71,172.5 0,56.6 19.2,108.7 51.4,150.1 12.7,23.6 28.6,45.5 47.9,64.8 147.8,147.8 372,374.5 372,374.5 l 0,-134.5 0,-10.4 0,-36.5 0,-229 -3.5,10.7 c -0.8,3.1 -2.3,6 -4,8.5 z"
       id="path8"
       style="fill:#f44336;fill-opacity:1"
       inkscape:connector-curvature="0" /><path
       d="m 956.5,537.9 -165.9,0 c -1,0 -2,0.1 -3,0.1 l -20.4,0 c -0.1,0 -0.3,0 -0.4,0 -14.1,-0.1 -27.2,-9.1 -31.8,-23.2 l -17.3,-53.2 -62.6,192.8 c -1.3,4.1 -3.4,7.8 -6,10.9 -4,5.8 -9.8,10.3 -17,12.6 -17.3,5.6 -36,-3.9 -41.6,-21.2 l -79,-243.2 -30.1,92.7 0,229.4 0,36.5 0,10.4 0,134.6 c 0,0 168.9,-170.8 310.1,-312.5 l 165,0 c 18.5,0 33.5,-15 33.5,-33.5 0,-18.2 -15,-33.2 -33.5,-33.2 z"
       id="path10"
       style="fill:#f44336;fill-opacity:1;stroke:none"
       inkscape:connector-curvature="0" /></g></svg>