<svg xmlns="http://www.w3.org/2000/svg" viewBox="0 0 32 32">
  <path fill="#ffc107" d="M32 4.151V.428a.425.425 0 0 0-.424-.426H20.505a.425.425 0 0 0-.424.426v1.435H7.075a.427.427 0 0 0-.427.426v5.498H.426A.425.425 0 0 0 0 8.212v15.593c0 .235.191.424.426.424h6.225l-.003.017v5.467c0 .235.191.424.426.424H20.08v1.435c0 .235.191.426.426.426h11.069a.423.423 0 0 0 .424-.424V27.85a.423.423 0 0 0-.424-.424h-11.07a.423.423 0 0 0-.424.424v1.441H7.497v-5.045l-.003-.017h6.212a.427.427 0 0 0 .427-.426v-7.38h5.95v1.438c0 .235.189.426.424.426h11.069a.423.423 0 0 0 .424-.424v-3.724a.425.425 0 0 0-.424-.426H20.507a.425.425 0 0 0-.424.426v1.438h-5.95V8.215a.426.426 0 0 0-.426-.426H7.501V2.708h12.582v1.441c0 .235.189.427.426.427h11.067A.424.424 0 0 0 32 4.151zm-11.072 24.12l.003.002H31.15v2.876H20.928v-2.878zm0-13.71l.003.002H31.15v2.875H20.928v-2.877zM13.28 8.638v14.741H.851V8.638H13.28zm17.874-4.913H20.929V.852h10.224v2.873z"/>
  <path fill="#222222" d="M3.002 20.159h8.141a.425.425 0 1 0 0-.85H3.002a.425.425 0 0 0-.426.424c0 .235.193.422.427.422l-.001.004zM3.002 16.425h8.141a.426.426 0 0 0 0-.852H3.002a.426.426 0 1 0 .001.852h-.001zM3.002 12.691h8.141a.426.426 0 0 0 0-.852H3.002a.426.426 0 1 0 .001.852h-.001z"/>
</svg>