<?xml version="1.0" encoding="UTF-8"?>
<!-- Generator: Adobe Illustrator 19.0.0, SVG Export Plug-In . SVG Version: 6.00 Build 0)  -->
<svg version="1.1" id="Layer_1" xmlns="http://www.w3.org/2000/svg" xmlns:xlink="http://www.w3.org/1999/xlink" x="0px" y="0px" viewBox="0 0 400 400" style="enable-background:new 0 0 400 400;" xml:space="preserve">
<style type="text/css">
	.st0{fill:#FFFFFF;}
	.st1{fill:#437F97;}
	.st2{fill:#FFB30F;}
	.st3{fill:#01295F;}
</style>
<polygon id="XMLID_95_" class="st0" points="177,66 177,75 161.7,90.2 210.2,90.9 193,71.9 193,58 "/>
<rect id="XMLID_94_" x="158.9" y="89.1" class="st0" width="54.1" height="165"/>
<rect id="XMLID_92_" x="158.9" y="317.2" class="st0" width="54.1" height="24.2"/>
<path id="XMLID_91_" class="st0" d="M68.8,347h-18c-16.5,0-29.8-13.4-29.8-29.8v-72.1c0-16.5,13.4-29.8,29.8-29.8h18  c16.5,0,29.8,13.4,29.8,29.8v72.1C98.7,333.6,85.3,347,68.8,347z"/>
<polygon id="XMLID_90_" class="st1" points="113.9,317.2 113.9,91.9 127.4,55.8 140.9,91.9 140.9,317.2 "/>
<path id="XMLID_89_" class="st1" d="M140.9,317.2v18c0,5-4.1,9-9,9h-9c-5,0-9-4.1-9-9v-18H140.9z"/>
<rect id="XMLID_88_" x="158.9" y="109.9" class="st2" width="54.1" height="207.3"/>
<rect id="XMLID_87_" x="231" y="281.1" class="st1" width="63.1" height="63.1"/>
<polygon id="XMLID_86_" class="st1" points="231,263.1 294.1,263.1 262.5,200 "/>
<circle id="XMLID_85_" class="st1" cx="262.5" cy="150.4" r="31.5"/>
<rect id="XMLID_84_" x="312.1" y="55.8" class="st2" width="63.1" height="288.4"/>
<polygon id="XMLID_83_" points="291,50.2 288.2,50.2 288.2,48.2 286.2,48.2 286.2,45.4 291,45.4 "/>
<path id="XMLID_187_" d="M279.4,48.2h-6.8v-2.8h6.8V48.2z M265.9,48.2h-6.8v-2.8h6.8V48.2z M252.4,48.2h-6.8v-2.8h6.8V48.2z"/>
<polygon id="XMLID_79_" points="236.9,50.2 234.1,50.2 234.1,45.4 238.9,45.4 238.9,48.2 236.9,48.2 "/>
<path id="XMLID_182_" d="M236.9,90.8h-2.8V84h2.8V90.8z M236.9,77.2h-2.8v-6.8h2.8V77.2z M236.9,63.7h-2.8V57h2.8V63.7z"/>
<polygon id="XMLID_75_" points="238.9,102.3 234.1,102.3 234.1,97.5 236.9,97.5 236.9,99.5 238.9,99.5 "/>
<path id="XMLID_177_" d="M279.4,102.3h-6.8v-2.8h6.8V102.3z M265.9,102.3h-6.8v-2.8h6.8V102.3z M252.4,102.3h-6.8v-2.8h6.8V102.3z"/>
<polygon id="XMLID_71_" points="291,102.3 286.2,102.3 286.2,99.5 288.2,99.5 288.2,97.5 291,97.5 "/>
<path id="XMLID_172_" d="M291,90.8h-2.8V84h2.8V90.8z M291,77.2h-2.8v-6.8h2.8V77.2z M291,63.7h-2.8V57h2.8V63.7z"/>
<rect id="XMLID_67_" x="124.6" y="254.6" class="st3" width="5.6" height="44.5"/>
<polygon id="XMLID_66_" class="st3" points="143.7,317.2 138.1,317.2 138.1,92.4 127.4,63.9 116.7,92.4 116.7,317.2 111,317.2   111,91.4 127.4,47.8 143.7,91.4 "/>
<rect id="XMLID_65_" x="113.9" y="89.1" class="st3" width="27" height="5.6"/>
<path id="XMLID_64_" class="st3" d="M131.9,347h-9c-6.5,0-11.8-5.3-11.8-11.8v-18h5.6v18c0,3.4,2.8,6.2,6.2,6.2h9  c3.4,0,6.2-2.8,6.2-6.2v-18h5.6v18C143.7,341.7,138.4,347,131.9,347z"/>
<path id="XMLID_63_" class="st3" d="M204,347h-36c-6.5,0-11.8-5.3-11.8-11.8v-18h5.6v18c0,3.4,2.8,6.2,6.2,6.2h36  c3.4,0,6.2-2.8,6.2-6.2v-18h5.6v18C215.8,341.7,210.5,347,204,347z"/>
<path id="XMLID_164_" class="st3" d="M215.8,320h-59.7V107.1h59.7V320z M161.7,314.3h48.4V112.7h-48.4V314.3z"/>
<polygon id="XMLID_60_" class="st3" points="161.7,109.9 156.1,109.9 156.1,90.7 175,71.9 178.9,75.8 161.7,93 "/>
<polygon id="XMLID_59_" class="st3" points="215.8,109.9 210.2,109.9 210.2,93 193,75.8 197,71.9 215.8,90.7 "/>
<rect id="XMLID_58_" x="176.9" y="71" class="st3" width="18" height="5.6"/>
<polygon id="XMLID_57_" class="st3" points="197.8,73.9 192.1,73.9 192.1,60.4 179.8,66.6 179.8,73.9 174.1,73.9 174.1,63.1   197.8,51.3 "/>
<rect id="XMLID_56_" x="158.9" y="89.1" class="st3" width="54.1" height="5.6"/>
<rect id="XMLID_55_" x="176.9" y="127.9" class="st0" width="18" height="117.1"/>
<path id="XMLID_155_" class="st3" d="M197.8,247.9h-23.7V125.1h23.7V247.9z M179.8,242.2h12.4V130.7h-12.4V242.2z"/>
<circle id="XMLID_52_" class="st0" cx="289.6" cy="101" r="4.5"/>
<path id="XMLID_151_" class="st3" d="M289.6,108.4c-4,0-7.3-3.3-7.3-7.3c0-4,3.3-7.3,7.3-7.3s7.3,3.3,7.3,7.3  C296.9,105.1,293.6,108.4,289.6,108.4z M289.6,99.3c-0.9,0-1.7,0.8-1.7,1.7c0,0.9,0.8,1.7,1.7,1.7c0.9,0,1.7-0.8,1.7-1.7  C291.3,100.1,290.5,99.3,289.6,99.3z"/>
<circle id="XMLID_49_" class="st0" cx="289.6" cy="46.8" r="4.5"/>
<path id="XMLID_147_" class="st3" d="M289.6,54.1c-4,0-7.3-3.3-7.3-7.3c0-4,3.3-7.3,7.3-7.3s7.3,3.3,7.3,7.3  C296.9,50.9,293.6,54.1,289.6,54.1z M289.6,45.1c-0.9,0-1.7,0.8-1.7,1.7c0,0.9,0.8,1.7,1.7,1.7c0.9,0,1.7-0.8,1.7-1.7  C291.3,45.9,290.5,45.1,289.6,45.1z"/>
<circle id="XMLID_46_" class="st0" cx="235.5" cy="46.8" r="4.5"/>
<path id="XMLID_143_" class="st3" d="M235.5,54.1c-4,0-7.3-3.3-7.3-7.3c0-4,3.3-7.3,7.3-7.3s7.3,3.3,7.3,7.3  C242.8,50.9,239.6,54.1,235.5,54.1z M235.5,45.1c-0.9,0-1.7,0.8-1.7,1.7c0,0.9,0.8,1.7,1.7,1.7c0.9,0,1.7-0.8,1.7-1.7  C237.2,45.9,236.4,45.1,235.5,45.1z"/>
<circle id="XMLID_43_" class="st0" cx="235.5" cy="100.9" r="4.5"/>
<path id="XMLID_139_" class="st3" d="M235.5,108.2c-4,0-7.3-3.3-7.3-7.3c0-4,3.3-7.3,7.3-7.3s7.3,3.3,7.3,7.3  C242.8,104.9,239.6,108.2,235.5,108.2z M235.5,99.2c-0.9,0-1.7,0.8-1.7,1.7s0.8,1.7,1.7,1.7c0.9,0,1.7-0.8,1.7-1.7  S236.4,99.2,235.5,99.2z"/>
<rect id="XMLID_40_" x="259.7" y="60.3" class="st3" width="5.6" height="27"/>
<polygon id="XMLID_39_" class="st3" points="278.9,65.6 273.2,65.6 273.2,63.2 251.8,63.2 251.8,65.6 246.2,65.6 246.2,57.5   278.9,57.5 "/>
<rect id="XMLID_38_" x="257.3" y="84.6" class="st3" width="10.5" height="5.6"/>
<path id="XMLID_133_" class="st3" d="M262.5,184.8c-18.9,0-34.4-15.4-34.4-34.4s15.4-34.4,34.4-34.4c18.9,0,34.4,15.4,34.4,34.4  S281.5,184.8,262.5,184.8z M262.5,121.7c-15.8,0-28.7,12.9-28.7,28.7s12.9,28.7,28.7,28.7c15.8,0,28.7-12.9,28.7-28.7  S278.4,121.7,262.5,121.7z"/>
<path id="XMLID_130_" class="st3" d="M296.9,347h-68.7v-68.7h68.7V347z M233.8,341.4h57.4v-57.4h-57.4V341.4z"/>
<path id="XMLID_127_" class="st3" d="M298.6,265.9h-72.2l36.1-72.2L298.6,265.9z M235.6,260.3h54l-27-54L235.6,260.3z"/>
<path id="XMLID_124_" class="st3" d="M378,347h-68.7V53H378V347z M314.9,341.4h57.4V58.6h-57.4V341.4z"/>
<circle id="XMLID_29_" class="st0" cx="343.6" cy="326.2" r="4.5"/>
<path id="XMLID_120_" class="st3" d="M343.6,333.5c-4,0-7.3-3.3-7.3-7.3c0-4,3.3-7.3,7.3-7.3c4,0,7.3,3.3,7.3,7.3  C351,330.2,347.7,333.5,343.6,333.5z M343.6,324.5c-0.9,0-1.7,0.8-1.7,1.7c0,0.9,0.8,1.7,1.7,1.7c0.9,0,1.7-0.8,1.7-1.7  C345.3,325.2,344.6,324.5,343.6,324.5z"/>
<rect id="XMLID_26_" x="357.2" y="323.3" class="st3" width="18" height="5.6"/>
<rect id="XMLID_25_" x="357.2" y="305.3" class="st3" width="18" height="5.6"/>
<rect id="XMLID_24_" x="357.2" y="287.3" class="st3" width="18" height="5.6"/>
<rect id="XMLID_23_" x="357.2" y="269.3" class="st3" width="18" height="5.6"/>
<rect id="XMLID_22_" x="357.2" y="251.3" class="st3" width="18" height="5.6"/>
<rect id="XMLID_21_" x="357.2" y="233.2" class="st3" width="18" height="5.6"/>
<rect id="XMLID_20_" x="357.2" y="215.2" class="st3" width="18" height="5.6"/>
<rect id="XMLID_19_" x="357.2" y="197.2" class="st3" width="18" height="5.6"/>
<rect id="XMLID_18_" x="357.2" y="179.2" class="st3" width="18" height="5.6"/>
<rect id="XMLID_17_" x="357.2" y="161.1" class="st3" width="18" height="5.6"/>
<rect id="XMLID_16_" x="357.2" y="143.1" class="st3" width="18" height="5.6"/>
<rect id="XMLID_15_" x="357.2" y="125.1" class="st3" width="18" height="5.6"/>
<rect id="XMLID_14_" x="357.2" y="107.1" class="st3" width="18" height="5.6"/>
<rect id="XMLID_13_" x="357.2" y="89.1" class="st3" width="18" height="5.6"/>
<rect id="XMLID_12_" x="357.2" y="71" class="st3" width="18" height="5.6"/>
<path id="XMLID_102_" class="st3" d="M68.8,347h-18c-16.5,0-29.8-13.4-29.8-29.8v-72.1c0-16.5,13.4-29.8,29.8-29.8h18  c16.5,0,29.8,13.4,29.8,29.8v72.1C98.7,333.6,85.3,347,68.8,347z M50.8,220.8c-13.4,0-24.2,10.9-24.2,24.2v72.1  c0,13.4,10.9,24.2,24.2,24.2h18c13.4,0,24.2-10.9,24.2-24.2v-72.1c0-13.4-10.9-24.2-24.2-24.2H50.8z"/>
<path id="XMLID_99_" class="st3" d="M59.8,265.9c-6.5,0-11.8-5.3-11.8-11.8s5.3-11.8,11.8-11.8c6.5,0,11.8,5.3,11.8,11.8  S66.3,265.9,59.8,265.9z M59.8,247.9c-3.4,0-6.2,2.8-6.2,6.2c0,3.4,2.8,6.2,6.2,6.2c3.4,0,6.2-2.8,6.2-6.2  C66,250.7,63.2,247.9,59.8,247.9z"/>
<rect id="XMLID_7_" x="57" y="195.5" class="st3" width="5.6" height="22.5"/>
<path id="XMLID_6_" class="st3" d="M62.6,195.5H57c0-8.4-6.8-15.2-15.2-15.2v-5.6C53.3,174.7,62.6,184,62.6,195.5z"/>
<path id="XMLID_5_" class="st3" d="M41.8,180.3c-11.5,0-20.8-9.3-20.8-20.8h5.6c0,8.4,6.8,15.2,15.2,15.2V180.3z"/>
<rect id="XMLID_4_" x="20.9" y="141.4" class="st3" width="5.6" height="18"/>
<path id="XMLID_3_" class="st3" d="M26.6,141.4h-5.6c0-11.5,9.3-20.8,20.8-20.8v5.6C33.4,126.2,26.6,133.1,26.6,141.4z"/>
<path id="XMLID_2_" class="st3" d="M41.8,126.2v-5.6c8.4,0,15.2-6.8,15.2-15.2h5.6C62.6,116.9,53.3,126.2,41.8,126.2z"/>
<rect id="XMLID_1_" x="57" y="55.8" class="st3" width="5.6" height="49.6"/>
</svg>